<svg width="27" height="40" viewBox="0 0 27 40" fill="none" xmlns="http://www.w3.org/2000/svg">
<path id="Vector" d="M16.1999 37.3333H10.8C10.4419 37.3333 10.0985 37.4738 9.84537 37.7239C9.5922 37.9739 9.44996 38.313 9.44996 38.6667C9.44996 39.0203 9.5922 39.3594 9.84537 39.6095C10.0985 39.8595 10.4419 40 10.8 40H16.1999C16.558 40 16.9013 39.8595 17.1545 39.6095C17.4077 39.3594 17.5499 39.0203 17.5499 38.6667C17.5499 38.313 17.4077 37.9739 17.1545 37.7239C16.9013 37.4738 16.558 37.3333 16.1999 37.3333ZM17.5499 33.3333H9.44996C9.09193 33.3333 8.74855 33.4738 8.49538 33.7239C8.24221 33.9739 8.09998 34.313 8.09998 34.6667C8.09998 35.0203 8.24221 35.3594 8.49538 35.6095C8.74855 35.8595 9.09193 36 9.44996 36H17.5499C17.9079 36 18.2513 35.8595 18.5045 35.6095C18.7577 35.3594 18.8999 35.0203 18.8999 34.6667C18.8999 34.313 18.7577 33.9739 18.5045 33.7239C18.2513 33.4738 17.9079 33.3333 17.5499 33.3333ZM23.0697 3.89087C20.5325 1.3817 17.1339 3.77871e-05 13.4999 3.77871e-05C11.7259 -0.00413841 9.96854 0.337888 8.32875 1.00647C6.68896 1.67505 5.19906 2.65702 3.94464 3.89596C2.69021 5.13491 1.69598 6.60642 1.01904 8.22598C0.342109 9.84554 -0.00419012 11.5812 3.82592e-05 13.3334C3.82592e-05 17.2184 1.50781 20.8525 4.13438 23.3034L4.50225 23.6442C6.02184 25.0475 8.09998 26.97 8.09998 28.6667V30.6667C8.09998 31.0203 8.24221 31.3594 8.49538 31.6095C8.74855 31.8595 9.09193 32 9.44996 32H11.4749C11.654 32 11.8257 31.9298 11.9522 31.8047C12.0788 31.6797 12.1499 31.5102 12.1499 31.3333V21.5684C12.15 21.4335 12.1086 21.3019 12.0314 21.1907C11.9541 21.0796 11.8445 20.9942 11.7171 20.9459C10.9376 20.6317 10.197 20.2305 9.50987 19.75C9.35546 19.6526 9.22273 19.5252 9.11978 19.3755C9.01682 19.2259 8.94579 19.0571 8.911 18.8794C8.87622 18.7017 8.87842 18.519 8.91746 18.3422C8.95649 18.1654 9.03156 17.9983 9.13808 17.851C9.2446 17.7038 9.38035 17.5796 9.53706 17.4858C9.69376 17.3921 9.86815 17.3308 10.0496 17.3058C10.231 17.2807 10.4158 17.2924 10.5925 17.3401C10.7692 17.3879 10.9342 17.4706 11.0775 17.5834C11.7019 18.02 12.9043 18.6667 13.4999 18.6667C14.0956 18.6667 15.298 18.0184 15.924 17.5834C16.2155 17.4024 16.566 17.3382 16.9038 17.404C17.2417 17.4699 17.5412 17.6607 17.7413 17.9375C17.9413 18.2143 18.0267 18.5561 17.98 18.893C17.9333 19.23 17.758 19.5365 17.49 19.75C16.8028 20.2297 16.0622 20.63 15.2828 20.9434C15.1553 20.9917 15.0458 21.0771 14.9685 21.1882C14.8912 21.2994 14.8499 21.431 14.8499 21.5659V31.3333C14.8499 31.5102 14.921 31.6797 15.0476 31.8047C15.1742 31.9298 15.3459 32 15.5249 32H17.5499C17.9079 32 18.2513 31.8595 18.5045 31.6095C18.7577 31.3594 18.8999 31.0203 18.8999 30.6667V28.6667C18.8999 27.01 20.9552 25.0892 22.4563 23.6859L22.8705 23.2975C25.5722 20.75 26.9998 17.3009 26.9998 13.3334C27.0088 11.5811 26.666 9.84439 25.9915 8.22367C25.3169 6.60296 24.3238 5.13033 23.0697 3.89087Z" fill="white"/>
</svg>
